<?xml version="1.0" encoding="UTF-8" standalone="no"?>
<!DOCTYPE svg PUBLIC "-//W3C//DTD SVG 1.1//EN"
 "http://www.w3.org/Graphics/SVG/1.1/DTD/svg11.dtd">
<!-- Generated by graphviz version 2.40.1 (20161225.0304)
 -->
<!-- Title: dependencies Pages: 1 -->
<svg width="3050pt" height="284pt"
 viewBox="0.00 0.00 3050.00 284.00" xmlns="http://www.w3.org/2000/svg" xmlns:xlink="http://www.w3.org/1999/xlink">
<g id="graph0" class="graph" transform="scale(1 1) rotate(0) translate(4 280)">
<title>dependencies</title>
<polygon fill="#ffffff" stroke="transparent" points="-4,4 -4,-280 3046,-280 3046,4 -4,4"/>
<text text-anchor="start" x="1500.0091" y="-42.4" font-family="sans-serif" font-weight="bold" font-size="14.00" fill="#000000">Legend</text>
<polygon fill="#ffffb3" stroke="transparent" points="1287,-10 1287,-30 1307,-30 1307,-10 1287,-10"/>
<text text-anchor="start" x="1310.629" y="-15.4" font-family="sans-serif" font-size="14.00" fill="#000000"> &#160;Declarations</text>
<polygon fill="#8dd3c7" stroke="transparent" points="1400,-10 1400,-30 1420,-30 1420,-10 1400,-10"/>
<text text-anchor="start" x="1423.7251" y="-15.4" font-family="sans-serif" font-size="14.00" fill="#000000"> &#160;Module</text>
<polygon fill="#80b1d3" stroke="transparent" points="1486,-10 1486,-30 1506,-30 1506,-10 1486,-10"/>
<text text-anchor="start" x="1509.7812" y="-15.4" font-family="sans-serif" font-size="14.00" fill="#000000"> &#160;Bootstrap</text>
<polygon fill="#fdb462" stroke="transparent" points="1583,-10 1583,-30 1603,-30 1603,-10 1583,-10"/>
<text text-anchor="start" x="1606.6732" y="-15.4" font-family="sans-serif" font-size="14.00" fill="#000000"> &#160;Providers</text>
<polygon fill="#fb8072" stroke="transparent" points="1679,-10 1679,-30 1699,-30 1699,-10 1679,-10"/>
<text text-anchor="start" x="1702.7258" y="-15.4" font-family="sans-serif" font-size="14.00" fill="#000000"> &#160;Exports</text>
<g id="clust1" class="cluster">
<title>cluster_AppModule</title>
<polygon fill="none" stroke="#000000" stroke-dasharray="1,5" points="8,-70 8,-268 3034,-268 3034,-70 8,-70"/>
</g>
<g id="clust2" class="cluster">
<title>cluster_AppModule_declarations</title>
<polygon fill="none" stroke="#000000" points="984,-78 984,-130 3026,-130 3026,-78 984,-78"/>
</g>
<g id="clust16" class="cluster">
<title>cluster_AppModule_imports</title>
<polygon fill="none" stroke="#000000" points="832,-78 832,-130 976,-130 976,-78 832,-78"/>
</g>
<g id="clust18" class="cluster">
<title>cluster_AppModule_bootstrap</title>
<polygon fill="none" stroke="#000000" points="1507,-208 1507,-260 1631,-260 1631,-208 1507,-208"/>
</g>
<g id="clust19" class="cluster">
<title>cluster_AppModule_providers</title>
<polygon fill="none" stroke="#000000" points="16,-78 16,-130 824,-130 824,-78 16,-78"/>
</g>
<!-- AppComponent -->
<g id="node1" class="node">
<title>AppComponent</title>
<polygon fill="#ffffb3" stroke="#000000" points="3017.9399,-122 2912.0601,-122 2912.0601,-86 3017.9399,-86 3017.9399,-122"/>
<text text-anchor="middle" x="2965" y="-99.8" font-family="Times,serif" font-size="14.00" fill="#000000">AppComponent</text>
</g>
<!-- AppModule -->
<g id="node14" class="node">
<title>AppModule</title>
<polygon fill="#8dd3c7" stroke="#000000" points="1610.6571,-187 1607.6571,-191 1586.6571,-191 1583.6571,-187 1527.3429,-187 1527.3429,-151 1610.6571,-151 1610.6571,-187"/>
<text text-anchor="middle" x="1569" y="-164.8" font-family="Times,serif" font-size="14.00" fill="#000000">AppModule</text>
</g>
<!-- AppComponent&#45;&gt;AppModule -->
<g id="edge1" class="edge">
<title>AppComponent&#45;&gt;AppModule</title>
<path fill="none" stroke="#000000" d="M2965,-122.1532C2965,-145.7566 2965,-184 2965,-184 2965,-184 1620.7795,-184 1620.7795,-184"/>
<polygon fill="#000000" stroke="#000000" points="1620.7795,-180.5001 1610.7795,-184 1620.7795,-187.5001 1620.7795,-180.5001"/>
</g>
<!-- DashboardComponent -->
<g id="node2" class="node">
<title>DashboardComponent</title>
<polygon fill="#ffffb3" stroke="#000000" points="2893.9734,-122 2752.0266,-122 2752.0266,-86 2893.9734,-86 2893.9734,-122"/>
<text text-anchor="middle" x="2823" y="-99.8" font-family="Times,serif" font-size="14.00" fill="#000000">DashboardComponent</text>
</g>
<!-- DashboardComponent&#45;&gt;AppModule -->
<g id="edge2" class="edge">
<title>DashboardComponent&#45;&gt;AppModule</title>
<path fill="none" stroke="#000000" d="M2823,-122.0109C2823,-144.4852 2823,-180 2823,-180 2823,-180 1620.7228,-180 1620.7228,-180"/>
<polygon fill="#000000" stroke="#000000" points="1620.7229,-176.5001 1610.7228,-180 1620.7228,-183.5001 1620.7229,-176.5001"/>
</g>
<!-- FooterComponent -->
<g id="node3" class="node">
<title>FooterComponent</title>
<polygon fill="#ffffb3" stroke="#000000" points="2733.8809,-122 2616.1191,-122 2616.1191,-86 2733.8809,-86 2733.8809,-122"/>
<text text-anchor="middle" x="2675" y="-99.8" font-family="Times,serif" font-size="14.00" fill="#000000">FooterComponent</text>
</g>
<!-- FooterComponent&#45;&gt;AppModule -->
<g id="edge3" class="edge">
<title>FooterComponent&#45;&gt;AppModule</title>
<path fill="none" stroke="#000000" d="M2675,-122.0449C2675,-143.6623 2675,-177 2675,-177 2675,-177 1620.6714,-177 1620.6714,-177"/>
<polygon fill="#000000" stroke="#000000" points="1620.6714,-173.5001 1610.6714,-177 1620.6713,-180.5001 1620.6714,-173.5001"/>
</g>
<!-- HeaderComponent -->
<g id="node4" class="node">
<title>HeaderComponent</title>
<polygon fill="#ffffb3" stroke="#000000" points="2597.7437,-122 2476.2563,-122 2476.2563,-86 2597.7437,-86 2597.7437,-122"/>
<text text-anchor="middle" x="2537" y="-99.8" font-family="Times,serif" font-size="14.00" fill="#000000">HeaderComponent</text>
</g>
<!-- HeaderComponent&#45;&gt;AppModule -->
<g id="edge4" class="edge">
<title>HeaderComponent&#45;&gt;AppModule</title>
<path fill="none" stroke="#000000" d="M2537,-122.1289C2537,-142.5724 2537,-173 2537,-173 2537,-173 1620.9044,-173 1620.9044,-173"/>
<polygon fill="#000000" stroke="#000000" points="1620.9045,-169.5001 1610.9044,-173 1620.9044,-176.5001 1620.9045,-169.5001"/>
</g>
<!-- LoginComponent -->
<g id="node5" class="node">
<title>LoginComponent</title>
<polygon fill="#ffffb3" stroke="#000000" points="2458.2758,-122 2343.7242,-122 2343.7242,-86 2458.2758,-86 2458.2758,-122"/>
<text text-anchor="middle" x="2401" y="-99.8" font-family="Times,serif" font-size="14.00" fill="#000000">LoginComponent</text>
</g>
<!-- LoginComponent&#45;&gt;AppModule -->
<g id="edge5" class="edge">
<title>LoginComponent&#45;&gt;AppModule</title>
<path fill="none" stroke="#000000" d="M2401,-122.1061C2401,-141.3391 2401,-169 2401,-169 2401,-169 1620.8292,-169 1620.8292,-169"/>
<polygon fill="#000000" stroke="#000000" points="1620.8292,-165.5001 1610.8292,-169 1620.8292,-172.5001 1620.8292,-165.5001"/>
</g>
<!-- PageNotFoundComponent -->
<g id="node6" class="node">
<title>PageNotFoundComponent</title>
<polygon fill="#ffffb3" stroke="#000000" points="2325.8243,-122 2160.1757,-122 2160.1757,-86 2325.8243,-86 2325.8243,-122"/>
<text text-anchor="middle" x="2243" y="-99.8" font-family="Times,serif" font-size="14.00" fill="#000000">PageNotFoundComponent</text>
</g>
<!-- PageNotFoundComponent&#45;&gt;AppModule -->
<g id="edge6" class="edge">
<title>PageNotFoundComponent&#45;&gt;AppModule</title>
<path fill="none" stroke="#000000" d="M2243,-122.2667C2243,-140.5552 2243,-166 2243,-166 2243,-166 1620.9071,-166 1620.9071,-166"/>
<polygon fill="#000000" stroke="#000000" points="1620.9071,-162.5001 1610.9071,-166 1620.907,-169.5001 1620.9071,-162.5001"/>
</g>
<!-- StudentAddComponent -->
<g id="node7" class="node">
<title>StudentAddComponent</title>
<polygon fill="#ffffb3" stroke="#000000" points="2142.2176,-122 1993.7824,-122 1993.7824,-86 2142.2176,-86 2142.2176,-122"/>
<text text-anchor="middle" x="2068" y="-99.8" font-family="Times,serif" font-size="14.00" fill="#000000">StudentAddComponent</text>
</g>
<!-- StudentAddComponent&#45;&gt;AppModule -->
<g id="edge7" class="edge">
<title>StudentAddComponent&#45;&gt;AppModule</title>
<path fill="none" stroke="#000000" d="M2068,-122.0336C2068,-139.0597 2068,-162 2068,-162 2068,-162 1620.6862,-162 1620.6862,-162"/>
<polygon fill="#000000" stroke="#000000" points="1620.6862,-158.5001 1610.6862,-162 1620.6861,-165.5001 1620.6862,-158.5001"/>
</g>
<!-- StudentDetailComponent -->
<g id="node8" class="node">
<title>StudentDetailComponent</title>
<polygon fill="#ffffb3" stroke="#000000" points="1976.3187,-122 1817.6813,-122 1817.6813,-86 1976.3187,-86 1976.3187,-122"/>
<text text-anchor="middle" x="1897" y="-99.8" font-family="Times,serif" font-size="14.00" fill="#000000">StudentDetailComponent</text>
</g>
<!-- StudentDetailComponent&#45;&gt;AppModule -->
<g id="edge8" class="edge">
<title>StudentDetailComponent&#45;&gt;AppModule</title>
<path fill="none" stroke="#000000" d="M1897,-122.0091C1897,-138.0494 1897,-159 1897,-159 1897,-159 1620.8746,-159 1620.8746,-159"/>
<polygon fill="#000000" stroke="#000000" points="1620.8746,-155.5001 1610.8746,-159 1620.8746,-162.5001 1620.8746,-155.5001"/>
</g>
<!-- StudentEditComponent -->
<g id="node9" class="node">
<title>StudentEditComponent</title>
<polygon fill="#ffffb3" stroke="#000000" points="1799.9453,-122 1652.0547,-122 1652.0547,-86 1799.9453,-86 1799.9453,-122"/>
<text text-anchor="middle" x="1726" y="-99.8" font-family="Times,serif" font-size="14.00" fill="#000000">StudentEditComponent</text>
</g>
<!-- StudentEditComponent&#45;&gt;AppModule -->
<g id="edge9" class="edge">
<title>StudentEditComponent&#45;&gt;AppModule</title>
<path fill="none" stroke="#000000" d="M1726,-122.1243C1726,-136.7832 1726,-155 1726,-155 1726,-155 1620.6609,-155 1620.6609,-155"/>
<polygon fill="#000000" stroke="#000000" points="1620.661,-151.5001 1610.6609,-155 1620.6609,-158.5001 1620.661,-151.5001"/>
</g>
<!-- StudentsComponent -->
<g id="node10" class="node">
<title>StudentsComponent</title>
<polygon fill="#ffffb3" stroke="#000000" points="1633.5562,-122 1504.4438,-122 1504.4438,-86 1633.5562,-86 1633.5562,-122"/>
<text text-anchor="middle" x="1569" y="-99.8" font-family="Times,serif" font-size="14.00" fill="#000000">StudentsComponent</text>
</g>
<!-- StudentsComponent&#45;&gt;AppModule -->
<g id="edge10" class="edge">
<title>StudentsComponent&#45;&gt;AppModule</title>
<path fill="none" stroke="#000000" d="M1569,-122.1061C1569,-122.1061 1569,-140.991 1569,-140.991"/>
<polygon fill="#000000" stroke="#000000" points="1565.5001,-140.9909 1569,-150.991 1572.5001,-140.991 1565.5001,-140.9909"/>
</g>
<!-- StylishPaginationComponent -->
<g id="node11" class="node">
<title>StylishPaginationComponent</title>
<polygon fill="#ffffb3" stroke="#000000" points="1486.115,-122 1305.885,-122 1305.885,-86 1486.115,-86 1486.115,-122"/>
<text text-anchor="middle" x="1396" y="-99.8" font-family="Times,serif" font-size="14.00" fill="#000000">StylishPaginationComponent</text>
</g>
<!-- StylishPaginationComponent&#45;&gt;AppModule -->
<g id="edge11" class="edge">
<title>StylishPaginationComponent&#45;&gt;AppModule</title>
<path fill="none" stroke="#000000" d="M1396,-122.1243C1396,-136.7832 1396,-155 1396,-155 1396,-155 1517.1215,-155 1517.1215,-155"/>
<polygon fill="#000000" stroke="#000000" points="1517.1216,-158.5001 1527.1215,-155 1517.1215,-151.5001 1517.1216,-158.5001"/>
</g>
<!-- TenantHeaderComponent -->
<g id="node12" class="node">
<title>TenantHeaderComponent</title>
<polygon fill="#ffffb3" stroke="#000000" points="1288.1163,-122 1127.8837,-122 1127.8837,-86 1288.1163,-86 1288.1163,-122"/>
<text text-anchor="middle" x="1208" y="-99.8" font-family="Times,serif" font-size="14.00" fill="#000000">TenantHeaderComponent</text>
</g>
<!-- TenantHeaderComponent&#45;&gt;AppModule -->
<g id="edge12" class="edge">
<title>TenantHeaderComponent&#45;&gt;AppModule</title>
<path fill="none" stroke="#000000" d="M1208,-122.0091C1208,-138.0494 1208,-159 1208,-159 1208,-159 1517.236,-159 1517.236,-159"/>
<polygon fill="#000000" stroke="#000000" points="1517.2361,-162.5001 1527.236,-159 1517.236,-155.5001 1517.2361,-162.5001"/>
</g>
<!-- TruncateDatePipe -->
<g id="node13" class="node">
<title>TruncateDatePipe</title>
<polygon fill="#ffffb3" stroke="#000000" points="1109.5618,-122 992.4382,-122 992.4382,-86 1109.5618,-86 1109.5618,-122"/>
<text text-anchor="middle" x="1051" y="-99.8" font-family="Times,serif" font-size="14.00" fill="#000000">TruncateDatePipe</text>
</g>
<!-- TruncateDatePipe&#45;&gt;AppModule -->
<g id="edge13" class="edge">
<title>TruncateDatePipe&#45;&gt;AppModule</title>
<path fill="none" stroke="#000000" d="M1051,-122.0336C1051,-139.0597 1051,-162 1051,-162 1051,-162 1517.0487,-162 1517.0487,-162"/>
<polygon fill="#000000" stroke="#000000" points="1517.0487,-165.5001 1527.0487,-162 1517.0486,-158.5001 1517.0487,-165.5001"/>
</g>
<!-- AppComponent  -->
<g id="node16" class="node">
<title>AppComponent </title>
<polygon fill="#80b1d3" stroke="#000000" points="1623.439,-252 1514.561,-252 1514.561,-216 1623.439,-216 1623.439,-252"/>
<text text-anchor="middle" x="1569" y="-229.8" font-family="Times,serif" font-size="14.00" fill="#000000">AppComponent </text>
</g>
<!-- AppModule&#45;&gt;AppComponent  -->
<g id="edge15" class="edge">
<title>AppModule&#45;&gt;AppComponent </title>
<path fill="none" stroke="#000000" stroke-dasharray="1,5" d="M1569,-187.1061C1569,-187.1061 1569,-205.991 1569,-205.991"/>
<polygon fill="#000000" stroke="#000000" points="1565.5001,-205.9909 1569,-215.991 1572.5001,-205.991 1565.5001,-205.9909"/>
</g>
<!-- AppRoutingModule -->
<g id="node15" class="node">
<title>AppRoutingModule</title>
<polygon fill="#8dd3c7" stroke="#000000" points="968.2744,-122 965.2744,-126 944.2744,-126 941.2744,-122 839.7256,-122 839.7256,-86 968.2744,-86 968.2744,-122"/>
<text text-anchor="middle" x="904" y="-99.8" font-family="Times,serif" font-size="14.00" fill="#000000">AppRoutingModule</text>
</g>
<!-- AppRoutingModule&#45;&gt;AppModule -->
<g id="edge14" class="edge">
<title>AppRoutingModule&#45;&gt;AppModule</title>
<path fill="none" stroke="#000000" d="M904,-122.2667C904,-140.5552 904,-166 904,-166 904,-166 1517.1494,-166 1517.1494,-166"/>
<polygon fill="#000000" stroke="#000000" points="1517.1494,-169.5001 1527.1494,-166 1517.1493,-162.5001 1517.1494,-169.5001"/>
</g>
<!-- AuthService -->
<g id="node17" class="node">
<title>AuthService</title>
<ellipse fill="#fdb462" stroke="#000000" cx="757" cy="-104" rx="59.1083" ry="18"/>
<text text-anchor="middle" x="757" y="-99.8" font-family="Times,serif" font-size="14.00" fill="#000000">AuthService</text>
</g>
<!-- AuthService&#45;&gt;AppModule -->
<g id="edge16" class="edge">
<title>AuthService&#45;&gt;AppModule</title>
<path fill="none" stroke="#000000" d="M757,-122.1061C757,-141.3391 757,-169 757,-169 757,-169 1517.3353,-169 1517.3353,-169"/>
<polygon fill="#000000" stroke="#000000" points="1517.3353,-172.5001 1527.3353,-169 1517.3352,-165.5001 1517.3353,-172.5001"/>
</g>
<!-- CommonService -->
<g id="node18" class="node">
<title>CommonService</title>
<ellipse fill="#fdb462" stroke="#000000" cx="604" cy="-104" rx="75.8836" ry="18"/>
<text text-anchor="middle" x="604" y="-99.8" font-family="Times,serif" font-size="14.00" fill="#000000">CommonService</text>
</g>
<!-- CommonService&#45;&gt;AppModule -->
<g id="edge17" class="edge">
<title>CommonService&#45;&gt;AppModule</title>
<path fill="none" stroke="#000000" d="M604,-122.1289C604,-142.5724 604,-173 604,-173 604,-173 1517.2254,-173 1517.2254,-173"/>
<polygon fill="#000000" stroke="#000000" points="1517.2255,-176.5001 1527.2254,-173 1517.2254,-169.5001 1517.2255,-176.5001"/>
</g>
<!-- ErrorInterceptor -->
<g id="node19" class="node">
<title>ErrorInterceptor</title>
<ellipse fill="#fdb462" stroke="#000000" cx="436" cy="-104" rx="73.5329" ry="18"/>
<text text-anchor="middle" x="436" y="-99.8" font-family="Times,serif" font-size="14.00" fill="#000000">ErrorInterceptor</text>
</g>
<!-- ErrorInterceptor&#45;&gt;AppModule -->
<g id="edge18" class="edge">
<title>ErrorInterceptor&#45;&gt;AppModule</title>
<path fill="none" stroke="#000000" d="M436,-122.0449C436,-143.6623 436,-177 436,-177 436,-177 1517.3322,-177 1517.3322,-177"/>
<polygon fill="#000000" stroke="#000000" points="1517.3323,-180.5001 1527.3322,-177 1517.3322,-173.5001 1517.3323,-180.5001"/>
</g>
<!-- JwtInterceptor -->
<g id="node20" class="node">
<title>JwtInterceptor</title>
<ellipse fill="#fdb462" stroke="#000000" cx="277" cy="-104" rx="66.6094" ry="18"/>
<text text-anchor="middle" x="277" y="-99.8" font-family="Times,serif" font-size="14.00" fill="#000000">JwtInterceptor</text>
</g>
<!-- JwtInterceptor&#45;&gt;AppModule -->
<g id="edge19" class="edge">
<title>JwtInterceptor&#45;&gt;AppModule</title>
<path fill="none" stroke="#000000" d="M277,-122.0109C277,-144.4852 277,-180 277,-180 277,-180 1517.1125,-180 1517.1125,-180"/>
<polygon fill="#000000" stroke="#000000" points="1517.1125,-183.5001 1527.1125,-180 1517.1125,-176.5001 1517.1125,-183.5001"/>
</g>
<!-- StudentApiService -->
<g id="node21" class="node">
<title>StudentApiService</title>
<ellipse fill="#fdb462" stroke="#000000" cx="108" cy="-104" rx="83.9663" ry="18"/>
<text text-anchor="middle" x="108" y="-99.8" font-family="Times,serif" font-size="14.00" fill="#000000">StudentApiService</text>
</g>
<!-- StudentApiService&#45;&gt;AppModule -->
<g id="edge20" class="edge">
<title>StudentApiService&#45;&gt;AppModule</title>
<path fill="none" stroke="#000000" d="M108,-122.1532C108,-145.7566 108,-184 108,-184 108,-184 1517.2405,-184 1517.2405,-184"/>
<polygon fill="#000000" stroke="#000000" points="1517.2405,-187.5001 1527.2405,-184 1517.2404,-180.5001 1517.2405,-187.5001"/>
</g>
</g>
</svg>
